<svg width="1176" height="384" viewBox="0 0 1176 384" fill="none" xmlns="http://www.w3.org/2000/svg">
<path d="M0 100C0 44.7715 44.7715 0 100 0H1176V284C1176 339.228 1131.23 384 1076 384H0V100Z" fill="#F7F5F0"/>
<mask id="mask0" style="mask-type:alpha" maskUnits="userSpaceOnUse" x="0" y="0" width="1176" height="384">
<path d="M0 50C0 22.3858 22.3858 0 50 0H1176V334C1176 361.614 1153.61 384 1126 384H0V50Z" fill="#1040C1"/>
</mask>
<g mask="url(#mask0)">
<path opacity="0.3" d="M940.482 75.9484C1119.41 12.3385 1305.16 86.0022 1375.68 130.785L1445.5 459.361L-103.14 611.568L-91.1062 221.791C8.55838 255.468 261.248 319.767 474.689 307.554C741.491 292.287 716.824 155.461 940.482 75.9484Z" fill="#DBD8D0"/>
</g>
</svg>
