<svg width="1176" height="384" viewBox="0 0 1176 384" fill="none" xmlns="http://www.w3.org/2000/svg">
<path d="M0 50C0 22.3858 22.3858 0 50 0H1176V334C1176 361.614 1153.61 384 1126 384H0V50Z" fill="#1040C1"/>
<mask id="mask0" style="mask-type:alpha" maskUnits="userSpaceOnUse" x="0" y="0" width="1176" height="384">
<path d="M0 50C0 22.3858 22.3858 0 50 0H1176V334C1176 361.614 1153.61 384 1126 384H0V50Z" fill="#1040C1"/>
</mask>
<g mask="url(#mask0)">
<path opacity="0.3" d="M895.802 127.4C1057.35 71.294 1221.89 150.293 1283.96 196.806L1338.96 522.101L-50.2071 616.363L-30.5739 233.863C57.8392 270.505 282.482 342.693 473.746 338.312C712.825 332.836 693.865 197.533 895.802 127.4Z" fill="#121661"/>
<path opacity="0.3" d="M35.3368 1.356C-76.9335 52.6114 -209.967 56.9149 -262.45 52.6597L-345 400.166L1210.74 421.624C1145.04 340.712 953.445 190.291 712.674 235.906C411.711 292.924 175.675 -62.7133 35.3368 1.356Z" fill="#121661"/>
</g>
</svg>
