<svg width="1399" height="730" viewBox="0 0 1399 730" fill="none" xmlns="http://www.w3.org/2000/svg">
<g opacity="0.65">
<mask id="mask0" style="mask-type:alpha" maskUnits="userSpaceOnUse" x="0" y="0" width="1399" height="730">
<rect width="1398.8" height="730" fill="#121661"/>
</mask>
<g mask="url(#mask0)">
<path d="M1182.73 -406.435L1182.73 88.3413L835.758 406.748L835.758 727.454L831.658 727.454L831.658 405.18L1178.62 86.7736L1178.62 -406.435L1182.73 -406.435Z" fill="#56CCFE"/>
<path d="M1213.77 -411.456L1213.77 -415.456L1209.77 -415.456L1205.66 -415.456L1201.66 -415.456L1201.66 -411.456L1201.66 95.9991L855.293 413.389L853.996 414.579L853.996 416.339L853.996 658.214L853.996 662.214L857.996 662.214L862.105 662.214L866.105 662.214L866.105 658.214L866.105 419.615L1212.47 102.277L1213.77 101.088L1213.77 99.3277L1213.77 -411.456Z" fill="white" stroke="white" stroke-width="8"/>
<path d="M1237.32 -411.453L1237.32 109.409L890.351 427.737L890.351 630.324L886.25 630.324L886.25 426.17L1233.22 107.842L1233.22 -411.453L1237.32 -411.453Z" fill="#56CCFE"/>
<path d="M1251.44 -411.454L1251.44 115.475L904.42 433.964L904.42 619.296L900.376 619.296L900.376 432.395L1247.4 113.906L1247.4 -411.454L1251.44 -411.454Z" fill="#56CCFE"/>
<path d="M1063.45 347.02L1064.73 345.833L1064.73 344.089L1064.73 339.715L1064.73 330.598L1058.02 336.772L938.225 447.014L936.933 448.202L936.933 449.957L936.933 668.075L785.338 809.445L784.037 810.657L784.066 812.435L784.123 815.91L784.269 824.832L790.833 818.787L947.735 674.274L949.025 673.085L949.025 671.331L949.025 453.271L1063.45 347.02Z" fill="white" stroke="white" stroke-width="8"/>
<path d="M831.86 731.843C831.861 735.016 830.489 738.061 828.045 740.31C825.601 742.559 822.285 743.829 818.822 743.843C815.348 743.843 812.017 742.579 809.561 740.328C807.104 738.078 805.725 735.026 805.725 731.843C805.725 728.66 807.104 725.608 809.561 723.357C812.017 721.107 815.348 719.842 818.822 719.842C822.285 719.856 825.601 721.127 828.045 723.376C830.489 725.625 831.861 728.669 831.86 731.843ZM809.916 731.843C809.976 733.975 810.939 736.002 812.601 737.495C814.263 738.988 816.494 739.83 818.822 739.843C821.144 739.83 823.368 738.986 825.021 737.491C826.674 735.997 827.624 733.97 827.669 731.843C827.624 729.716 826.674 727.689 825.021 726.194C823.368 724.7 821.144 723.856 818.822 723.842C816.494 723.856 814.263 724.698 812.601 726.191C810.939 727.684 809.976 729.711 809.916 731.843Z" fill="#56CCFE"/>
<path d="M602.996 291.363C602.996 293.511 602.034 295.573 600.318 297.096C598.603 298.62 596.275 299.483 593.842 299.497C592.632 299.497 591.434 299.286 590.317 298.877C589.199 298.469 588.184 297.87 587.328 297.114C586.473 296.359 585.794 295.462 585.332 294.476C584.869 293.489 584.63 292.431 584.63 291.363C584.645 289.215 585.623 287.159 587.348 285.644C589.074 284.13 591.409 283.28 593.842 283.28C595.044 283.28 596.234 283.489 597.345 283.895C598.456 284.301 599.465 284.897 600.315 285.647C601.165 286.398 601.839 287.289 602.299 288.27C602.759 289.25 602.996 290.301 602.996 291.363ZM588.75 291.363C588.75 292.555 589.286 293.699 590.241 294.542C591.196 295.385 592.491 295.859 593.842 295.859C595.182 295.846 596.463 295.366 597.406 294.524C598.348 293.683 598.877 292.547 598.877 291.363C598.877 290.184 598.346 289.053 597.402 288.219C596.458 287.386 595.177 286.917 593.842 286.917C593.176 286.911 592.515 287.021 591.898 287.241C591.28 287.461 590.718 287.788 590.245 288.201C589.771 288.615 589.395 289.107 589.138 289.65C588.882 290.193 588.75 290.775 588.75 291.363Z" fill="#56CCFE"/>
<path d="M623.478 291.363C623.479 293.511 622.516 295.573 620.801 297.096C619.086 298.62 616.757 299.483 614.324 299.497C613.115 299.497 611.917 299.286 610.799 298.877C609.682 298.469 608.666 297.87 607.811 297.114C606.955 296.359 606.277 295.462 605.814 294.476C605.351 293.489 605.113 292.431 605.113 291.363C605.128 289.215 606.105 287.159 607.831 285.644C609.557 284.13 611.891 283.28 614.324 283.28C615.526 283.28 616.717 283.489 617.827 283.895C618.938 284.301 619.947 284.897 620.797 285.647C621.647 286.398 622.322 287.289 622.782 288.27C623.242 289.25 623.478 290.301 623.478 291.363ZM609.232 291.363C609.232 292.555 609.769 293.699 610.724 294.542C611.679 295.385 612.974 295.859 614.324 295.859C614.99 295.859 615.65 295.743 616.264 295.516C616.879 295.289 617.436 294.957 617.905 294.539C618.373 294.121 618.743 293.625 618.992 293.08C619.242 292.535 619.367 291.951 619.359 291.363C619.367 290.777 619.242 290.196 618.991 289.654C618.741 289.111 618.371 288.618 617.901 288.204C617.432 287.79 616.874 287.463 616.26 287.242C615.646 287.021 614.988 286.91 614.324 286.917C613.658 286.911 612.997 287.021 612.38 287.241C611.762 287.461 611.201 287.788 610.727 288.201C610.253 288.615 609.877 289.107 609.621 289.65C609.364 290.193 609.232 290.775 609.232 291.363Z" fill="#56CCFE"/>
<path d="M643.259 291.363C643.259 293.511 642.296 295.573 640.581 297.096C638.866 298.62 636.538 299.483 634.105 299.497C632.895 299.497 631.697 299.286 630.579 298.877C629.462 298.469 628.446 297.87 627.591 297.114C626.736 296.359 626.057 295.462 625.594 294.476C625.131 293.489 624.893 292.431 624.893 291.363C624.908 289.215 625.885 287.159 627.611 285.644C629.337 284.13 631.671 283.28 634.105 283.28C636.532 283.28 638.861 284.131 640.578 285.647C642.294 287.163 643.259 289.219 643.259 291.363ZM629.012 291.363C629.012 292.555 629.549 293.699 630.504 294.542C631.459 295.385 632.754 295.859 634.105 295.859C634.771 295.859 635.43 295.743 636.045 295.516C636.659 295.289 637.217 294.957 637.685 294.539C638.153 294.121 638.523 293.625 638.773 293.08C639.022 292.535 639.147 291.951 639.139 291.363C639.147 290.777 639.022 290.196 638.772 289.654C638.521 289.111 638.151 288.618 637.682 288.204C637.213 287.79 636.655 287.463 636.04 287.242C635.426 287.021 634.768 286.91 634.105 286.917C633.439 286.911 632.778 287.021 632.16 287.241C631.543 287.461 630.981 287.788 630.507 288.201C630.034 288.615 629.658 289.107 629.401 289.65C629.145 290.193 629.012 290.775 629.012 291.363Z" fill="#56CCFE"/>
<path d="M663.036 291.363C663.036 293.511 662.046 295.572 660.281 297.095C658.516 298.619 656.121 299.482 653.618 299.495C652.358 299.515 651.107 299.32 649.937 298.92C648.766 298.521 647.701 297.925 646.802 297.168C645.903 296.41 645.189 295.507 644.702 294.51C644.215 293.514 643.964 292.444 643.964 291.363C643.979 289.215 644.985 287.159 646.76 285.645C648.536 284.131 650.938 283.281 653.441 283.281C654.693 283.261 655.936 283.455 657.1 283.852C658.263 284.25 659.322 284.842 660.215 285.594C661.109 286.347 661.818 287.244 662.303 288.235C662.787 289.225 663.036 290.289 663.036 291.363ZM648.379 291.363C648.379 292.555 648.931 293.699 649.913 294.542C650.896 295.385 652.228 295.858 653.618 295.858C654.303 295.858 654.981 295.742 655.614 295.515C656.246 295.289 656.82 294.957 657.301 294.539C657.783 294.121 658.164 293.625 658.42 293.079C658.677 292.534 658.805 291.951 658.798 291.363C658.806 290.777 658.677 290.196 658.419 289.654C658.162 289.112 657.781 288.619 657.298 288.205C656.815 287.791 656.241 287.464 655.609 287.243C654.977 287.022 654.3 286.911 653.618 286.918C652.932 286.911 652.253 287.021 651.617 287.242C650.982 287.462 650.404 287.788 649.917 288.202C649.429 288.615 649.043 289.108 648.779 289.65C648.515 290.193 648.379 290.775 648.379 291.363Z" fill="#56CCFE"/>
<path d="M475.141 571.644C475.126 573.964 474.149 576.184 472.423 577.82C470.697 579.456 468.363 580.374 465.93 580.374C463.502 580.374 461.173 579.454 459.457 577.817C457.74 576.179 456.775 573.959 456.775 571.644C456.775 569.323 457.738 567.097 459.453 565.451C461.168 563.805 463.497 562.874 465.93 562.859C468.373 562.859 470.716 563.785 472.443 565.432C474.171 567.079 475.141 569.314 475.141 571.644ZM460.895 571.644C460.895 572.917 461.425 574.138 462.369 575.039C463.314 575.939 464.594 576.445 465.93 576.445C467.27 576.445 468.557 575.941 469.51 575.042C470.464 574.143 471.007 572.922 471.022 571.644C471.022 570.356 470.485 569.121 469.53 568.21C468.575 567.299 467.28 566.788 465.93 566.788C465.264 566.788 464.604 566.913 463.99 567.158C463.375 567.403 462.817 567.761 462.349 568.213C461.881 568.665 461.511 569.201 461.262 569.789C461.012 570.378 460.887 571.009 460.895 571.644Z" fill="#56CCFE"/>
<path d="M494.918 571.644C494.918 573.959 493.95 576.179 492.228 577.817C490.506 579.454 488.17 580.374 485.735 580.374C483.299 580.374 480.964 579.454 479.241 577.817C477.519 576.179 476.552 573.959 476.552 571.644C476.552 569.323 477.517 567.097 479.238 565.451C480.958 563.805 483.294 562.874 485.735 562.859C488.175 562.874 490.511 563.805 492.231 565.451C493.952 567.097 494.918 569.323 494.918 571.644ZM480.627 571.644C480.642 572.922 481.187 574.143 482.143 575.042C483.099 575.941 484.39 576.445 485.735 576.445C487.08 576.445 488.37 575.941 489.326 575.042C490.283 574.143 490.828 572.922 490.843 571.644C490.843 570.356 490.305 569.121 489.347 568.21C488.389 567.299 487.089 566.788 485.735 566.788C484.38 566.788 483.081 567.299 482.123 568.21C481.165 569.121 480.627 570.356 480.627 571.644Z" fill="#56CCFE"/>
<path d="M1248.62 175.021L1151.16 264.341L1151.16 446.894L1086.94 505.779L1084.04 503.117L1147.06 445.328L1147.06 262.827L1196.39 217.593L1245.72 172.359L1248.62 175.021Z" fill="#56CCFE"/>
<path d="M1211.18 189.945L1138.63 256.827L1138.63 442.57L1064.32 510.968L1061.43 508.301L1134.54 441.001L1134.54 255.258L1208.28 187.278L1211.18 189.945Z" fill="#56CCFE"/>
<path d="M1224.6 182.763C1224.6 184.993 1223.64 187.131 1221.92 188.707C1220.21 190.284 1217.88 191.17 1215.45 191.17C1213.02 191.17 1210.68 190.286 1208.96 188.711C1207.23 187.136 1206.25 184.998 1206.24 182.763C1206.24 180.52 1207.21 178.368 1208.94 176.782C1210.66 175.195 1213.01 174.304 1215.45 174.304C1217.88 174.318 1220.21 175.215 1221.93 176.8C1223.64 178.385 1224.61 180.529 1224.6 182.763ZM1210.36 182.763C1210.37 183.994 1210.92 185.17 1211.87 186.036C1212.82 186.901 1214.11 187.387 1215.45 187.387C1216.79 187.387 1218.07 186.9 1219.01 186.033C1219.96 185.165 1220.49 183.989 1220.49 182.763C1220.49 182.152 1220.37 181.545 1220.12 180.978C1219.87 180.41 1219.5 179.895 1219.03 179.46C1218.56 179.025 1218.01 178.679 1217.39 178.444C1216.78 178.208 1216.12 178.087 1215.45 178.087C1214.78 178.08 1214.11 178.196 1213.48 178.428C1212.86 178.66 1212.29 179.003 1211.81 179.438C1211.33 179.873 1210.95 180.391 1210.69 180.961C1210.43 181.532 1210.3 182.145 1210.3 182.763L1210.36 182.763Z" fill="#56CCFE"/>
<path d="M1067.08 513.531C1067.08 515.766 1066.16 517.91 1064.51 519.494C1062.86 521.079 1060.62 521.977 1058.28 521.99C1055.93 521.99 1053.68 521.099 1052.02 519.513C1050.36 517.927 1049.42 515.775 1049.42 513.531C1049.44 511.297 1050.38 509.159 1052.04 507.584C1053.7 506.009 1055.94 505.125 1058.28 505.125C1060.61 505.125 1062.85 506.011 1064.5 507.587C1066.15 509.164 1067.08 511.302 1067.08 513.531ZM1053.38 513.531C1053.38 514.772 1053.9 515.961 1054.82 516.838C1055.74 517.715 1056.98 518.208 1058.28 518.208C1059.58 518.208 1060.82 517.715 1061.74 516.838C1062.66 515.961 1063.18 514.772 1063.18 513.531C1063.18 512.291 1062.66 511.102 1061.74 510.225C1060.82 509.348 1059.58 508.855 1058.28 508.855C1056.98 508.855 1055.74 509.348 1054.82 510.225C1053.9 511.102 1053.38 512.291 1053.38 513.531Z" fill="#56CCFE"/>
<path d="M1089.69 509.019C1089.69 511.247 1088.76 513.384 1087.1 514.964C1085.45 516.544 1083.2 517.438 1080.86 517.452C1078.51 517.438 1076.26 516.544 1074.61 514.964C1072.96 513.384 1072.03 511.247 1072.03 509.019C1072.03 506.792 1072.96 504.655 1074.61 503.075C1076.26 501.495 1078.51 500.601 1080.86 500.587C1083.2 500.601 1085.45 501.495 1087.1 503.075C1088.76 504.655 1089.69 506.792 1089.69 509.019ZM1075.95 509.019C1075.95 510.256 1076.46 511.441 1077.38 512.316C1078.31 513.19 1079.55 513.681 1080.86 513.681C1082.16 513.681 1083.41 513.19 1084.33 512.316C1085.25 511.441 1085.77 510.256 1085.77 509.019C1085.77 507.783 1085.25 506.597 1084.33 505.723C1083.41 504.849 1082.16 504.358 1080.86 504.358C1079.55 504.358 1078.31 504.849 1077.38 505.723C1076.46 506.597 1075.95 507.783 1075.95 509.019Z" fill="#56CCFE"/>
<path d="M1260.63 169.734C1260.63 171.968 1259.7 174.112 1258.05 175.696C1256.4 177.281 1254.17 178.179 1251.83 178.193C1249.48 178.193 1247.22 177.301 1245.56 175.715C1243.9 174.129 1242.97 171.977 1242.97 169.734C1242.98 167.499 1243.92 165.361 1245.58 163.786C1247.24 162.211 1249.49 161.327 1251.83 161.327C1254.16 161.327 1256.4 162.213 1258.05 163.789C1259.7 165.366 1260.63 167.504 1260.63 169.734ZM1246.93 169.734C1246.93 170.348 1247.06 170.956 1247.3 171.523C1247.55 172.09 1247.91 172.606 1248.36 173.04C1248.82 173.474 1249.36 173.819 1249.95 174.054C1250.55 174.289 1251.18 174.41 1251.83 174.41C1253.11 174.396 1254.35 173.897 1255.25 173.022C1256.16 172.146 1256.67 170.965 1256.67 169.734C1256.65 168.511 1256.14 167.343 1255.23 166.479C1254.33 165.615 1253.11 165.124 1251.83 165.11C1250.54 165.11 1249.3 165.595 1248.38 166.461C1247.47 167.327 1246.94 168.502 1246.93 169.734Z" fill="#56CCFE"/>
<path d="M670.098 646.84C670.098 648.989 669.099 651.05 667.318 652.574C665.537 654.098 663.119 654.96 660.592 654.974C658.055 654.974 655.622 654.117 653.828 652.591C652.034 651.066 651.026 648.997 651.026 646.84C651.042 644.692 652.057 642.636 653.849 641.121C655.641 639.607 658.065 638.757 660.592 638.757C663.113 638.757 665.531 639.609 667.314 641.125C669.097 642.64 670.098 644.696 670.098 646.84ZM655.304 646.84C655.304 648.033 655.861 649.176 656.853 650.019C657.845 650.863 659.19 651.336 660.592 651.336C661.995 651.336 663.34 650.863 664.331 650.019C665.323 649.176 665.88 648.033 665.88 646.84C665.88 645.648 665.323 644.504 664.331 643.661C663.34 642.818 661.995 642.344 660.592 642.344C659.19 642.344 657.845 642.818 656.853 643.661C655.861 644.504 655.304 645.648 655.304 646.84Z" fill="#56CCFE"/>
<path d="M692.702 642.65C692.702 644.878 691.736 647.015 690.016 648.595C688.296 650.175 685.96 651.069 683.519 651.083C681.079 651.069 678.743 650.175 677.023 648.595C675.302 647.015 674.336 644.878 674.336 642.65C674.336 640.423 675.302 638.286 677.023 636.706C678.743 635.126 681.079 634.231 683.519 634.217C685.96 634.231 688.296 635.126 690.016 636.706C691.736 638.286 692.702 640.423 692.702 642.65ZM678.411 642.65C678.411 643.886 678.949 645.072 679.907 645.946C680.865 646.821 682.165 647.312 683.519 647.312C684.874 647.312 686.173 646.821 687.131 645.946C688.089 645.072 688.627 643.886 688.627 642.65C688.627 641.414 688.089 640.228 687.131 639.354C686.173 638.48 684.874 637.989 683.519 637.989C682.165 637.989 680.865 638.48 679.907 639.354C678.949 640.228 678.411 641.414 678.411 642.65Z" fill="#56CCFE"/>
<path d="M646.789 176.22C646.789 178.455 645.826 180.599 644.111 182.183C642.396 183.768 640.067 184.666 637.634 184.679C635.191 184.679 632.848 183.788 631.121 182.202C629.393 180.615 628.423 178.464 628.423 176.22C628.438 173.986 629.415 171.848 631.141 170.273C632.867 168.698 635.201 167.814 637.634 167.814C640.062 167.814 642.391 168.7 644.107 170.276C645.824 171.853 646.789 173.991 646.789 176.22ZM632.542 176.22C632.542 177.461 633.079 178.65 634.034 179.527C634.989 180.404 636.284 180.897 637.634 180.897C638.985 180.897 640.28 180.404 641.235 179.527C642.19 178.65 642.726 177.461 642.726 176.22C642.726 174.98 642.19 173.791 641.235 172.914C640.28 172.037 638.985 171.544 637.634 171.544C636.284 171.544 634.989 172.037 634.034 172.914C633.079 173.791 632.542 174.98 632.542 176.22Z" fill="#56CCFE"/>
<path d="M670.098 172.356C670.098 174.583 669.096 176.72 667.309 178.3C665.522 179.88 663.097 180.775 660.562 180.789C658.028 180.775 655.602 179.88 653.816 178.3C652.029 176.72 651.026 174.583 651.026 172.356C651.026 170.128 652.029 167.991 653.816 166.411C655.602 164.831 658.028 163.937 660.562 163.923C663.097 163.937 665.522 164.831 667.309 166.411C669.096 167.991 670.098 170.128 670.098 172.356ZM655.258 172.356C655.258 173.592 655.817 174.778 656.812 175.652C657.806 176.526 659.156 177.017 660.562 177.017C661.969 177.017 663.318 176.526 664.313 175.652C665.308 174.778 665.867 173.592 665.867 172.356C665.867 171.12 665.308 169.934 664.313 169.06C663.318 168.185 661.969 167.694 660.562 167.694C659.156 167.694 657.806 168.185 656.812 169.06C655.817 169.934 655.258 171.12 655.258 172.356Z" fill="#56CCFE"/>
<path d="M1084.74 411.088L987.277 500.633L987.277 683.542L923.06 742.542L920.156 739.874L983.178 681.973L983.178 499.064L1081.84 408.473L1084.74 411.088Z" fill="#56CCFE"/>
<path d="M1046.6 426.06L974.022 492.89L974.022 678.633L899.686 747.084L896.847 744.417L969.934 677.116L969.934 491.374L1043.7 423.393L1046.6 426.06Z" fill="#56CCFE"/>
<path d="M1060.73 418.829C1060.73 421.063 1059.76 423.207 1058.05 424.792C1056.33 426.377 1054 427.274 1051.57 427.288C1050.36 427.288 1049.16 427.069 1048.05 426.644C1046.93 426.219 1045.91 425.596 1045.06 424.81C1044.2 424.025 1043.52 423.092 1043.06 422.066C1042.6 421.04 1042.36 419.94 1042.36 418.829C1042.38 416.595 1043.35 414.456 1045.08 412.881C1046.8 411.306 1049.14 410.422 1051.57 410.422C1054 410.422 1056.33 411.308 1058.04 412.885C1059.76 414.461 1060.73 416.599 1060.73 418.829Z" fill="#56CCFE"/>
<path d="M1096.75 406.177C1096.75 408.497 1095.8 410.723 1094.1 412.368C1092.4 414.014 1090.09 414.945 1087.68 414.96C1086.47 414.982 1085.26 414.77 1084.14 414.339C1083.01 413.907 1081.98 413.264 1081.12 412.446C1080.25 411.628 1079.56 410.653 1079.09 409.576C1078.63 408.5 1078.38 407.344 1078.38 406.177C1078.4 403.857 1079.37 401.637 1081.08 400.002C1082.79 398.367 1085.1 397.449 1087.51 397.449C1088.72 397.427 1089.91 397.637 1091.03 398.066C1092.15 398.494 1093.17 399.134 1094.03 399.947C1094.89 400.759 1095.58 401.729 1096.04 402.799C1096.51 403.868 1096.75 405.017 1096.75 406.177Z" fill="#56CCFE"/>
<path d="M841.75 690.245C841.75 692.59 840.779 694.838 839.052 696.496C837.324 698.154 834.981 699.085 832.538 699.085C830.105 699.07 827.777 698.133 826.062 696.477C824.346 694.82 823.384 692.58 823.384 690.245C823.414 687.934 824.392 685.728 826.105 684.104C827.819 682.481 830.13 681.57 832.538 681.57C834.952 681.57 837.269 682.479 838.992 684.101C840.714 685.723 841.705 687.93 841.75 690.245ZM827.503 690.245C827.496 690.884 827.62 691.519 827.87 692.111C828.12 692.704 828.489 693.243 828.957 693.697C829.426 694.152 829.983 694.513 830.598 694.759C831.213 695.005 831.872 695.132 832.538 695.132C833.889 695.132 835.184 694.617 836.139 693.701C837.094 692.784 837.63 691.541 837.63 690.245C837.63 689.606 837.498 688.973 837.241 688.383C836.985 687.794 836.609 687.259 836.135 686.809C835.662 686.36 835.1 686.005 834.482 685.766C833.865 685.526 833.204 685.406 832.538 685.414C831.875 685.406 831.217 685.526 830.602 685.766C829.988 686.007 829.43 686.362 828.961 686.812C828.492 687.263 828.121 687.798 827.871 688.388C827.621 688.977 827.496 689.609 827.503 690.245Z" fill="#56CCFE"/>
<path d="M897.553 638.727C897.553 639.842 897.323 640.946 896.876 641.976C896.429 643.006 895.773 643.941 894.948 644.727C894.122 645.513 893.142 646.135 892.064 646.557C890.987 646.979 889.833 647.193 888.668 647.186C886.336 647.172 884.104 646.275 882.46 644.69C880.816 643.105 879.894 640.961 879.894 638.727C879.894 636.497 880.818 634.359 882.464 632.782C884.109 631.206 886.341 630.32 888.668 630.32C889.828 630.313 890.978 630.525 892.052 630.944C893.126 631.363 894.103 631.98 894.928 632.761C895.753 633.541 896.41 634.47 896.86 635.494C897.31 636.517 897.546 637.616 897.553 638.727Z" fill="#56CCFE"/>
<path d="M911.678 625.756C911.679 627.99 910.753 630.134 909.104 631.719C907.455 633.304 905.216 634.201 902.876 634.215C900.527 634.215 898.274 633.324 896.613 631.737C894.952 630.151 894.019 627.999 894.019 625.756C894.034 623.521 894.973 621.383 896.633 619.808C898.292 618.233 900.537 617.349 902.876 617.349C905.211 617.349 907.45 618.235 909.1 619.811C910.751 621.388 911.678 623.526 911.678 625.756Z" fill="#56CCFE"/>
<g opacity="0.5">
<path d="M908.856 -120.305L908.856 -248.634L904.767 -248.634L904.767 -121.871L767.582 3.98099L767.591 9.53955L908.856 -120.305Z" fill="#56CCFE" stroke="white" stroke-width="12"/>
<path d="M985.148 -393.939L985.148 -89.022L819.284 63.5147L819.284 139.705L658.876 287.173L655.978 284.508L815.191 138.137L815.191 61.9471L981.112 -90.5896L981.112 -393.939L985.148 -393.939Z" fill="#56CCFE"/>
<path d="M971.729 -393.938L971.729 -95.7978L805.756 56.6405L805.756 133.408L639.101 286.525L636.201 283.862L801.662 131.841L801.662 55.0737L967.635 -97.3122L967.635 -393.938L971.729 -393.938Z" fill="#56CCFE"/>
<path d="M959.718 -393.939L959.718 -101.034L793.382 51.4798L793.382 128.285L619.977 287.173L617.126 284.508L789.277 126.718L789.277 49.9123L955.671 -102.601L955.671 -393.939L959.718 -393.939Z" fill="#56CCFE"/>
<path d="M947.708 -393.941L947.708 -106.708L781.619 45.7899L781.619 122.587L599.542 289.766L596.64 287.153L777.523 121.02L777.523 44.275L943.611 -108.223L943.611 -393.941L947.708 -393.941Z" fill="#56CCFE"/>
<path d="M1045.9 -411.453L1045.9 109.408L972.386 175.619L875.262 175.619L653.42 381.205L653.42 491.47L555.671 491.47L471.634 567.402L468.789 564.737L554.021 487.708L649.324 487.708L649.324 379.689L649.893 379.114L873.555 171.857L970.736 171.857L1041.8 107.84L1041.8 -411.453L1045.9 -411.453Z" fill="#56CCFE"/>
<path d="M956.153 69.881L956.168 66.366L952.653 66.366L948.612 66.366L945.13 66.366L945.112 69.8475L944.732 142.1L851.886 142.351L850.52 142.355L849.517 143.283L620.005 355.813L619.994 355.823L619.436 356.335L618.303 357.375L618.303 358.914L618.303 457.595L532.473 457.947L531.123 457.952L530.127 458.863L435.346 545.448L434.207 546.489L434.207 548.032L434.207 552.483L434.207 560.371L440.055 555.078L535.493 468.704L625.916 468.343L629.402 468.33L629.402 464.844L629.402 362.01L854.979 153.11L952.321 152.853L955.797 152.844L955.812 149.368L956.153 69.881Z" fill="white" stroke="white" stroke-width="7"/>
<path d="M1059.31 -411.452L1059.31 114.022L978.908 186.595L883.038 186.699L664.971 387.163L665.37 501.983L564.78 501.983L492.167 568.7L489.267 566.034L563.074 498.271L661.275 498.271L660.877 385.647L881.332 182.934L977.259 182.83L1055.22 112.453L1055.22 -411.452L1059.31 -411.452Z" fill="#56CCFE"/>
<path d="M851.641 307.997L754.176 397.317L754.176 579.871L689.959 638.756L687.056 636.093L750.077 578.305L750.077 395.803L848.738 305.335L851.641 307.997Z" fill="#56CCFE"/>
<path d="M814.204 323.564L741.313 390.312L741.313 575.683L666.655 643.945L663.746 641.283L737.207 574.118L737.207 388.747L811.295 320.903L814.204 323.564Z" fill="#56CCFE"/>
<path d="M826.92 316.387C826.92 318.617 825.955 320.755 824.239 322.331C822.522 323.908 820.194 324.793 817.766 324.793C815.333 324.793 812.998 323.909 811.272 322.334C809.546 320.759 808.569 318.621 808.554 316.387C808.554 314.144 809.525 311.992 811.252 310.406C812.98 308.819 815.323 307.928 817.766 307.928C820.199 307.942 822.527 308.839 824.242 310.424C825.957 312.009 826.92 314.153 826.92 316.387Z" fill="#56CCFE"/>
<path d="M863.653 303.363C863.653 305.598 862.691 307.741 860.976 309.326C859.26 310.911 856.932 311.809 854.499 311.823C852.056 311.823 849.713 310.931 847.986 309.345C846.258 307.759 845.288 305.607 845.288 303.363C845.303 301.129 846.28 298.991 848.006 297.416C849.732 295.841 852.066 294.957 854.499 294.957C856.927 294.957 859.255 295.842 860.972 297.419C862.689 298.996 863.653 301.134 863.653 303.363Z" fill="#56CCFE"/>
<path d="M828.331 -162.29L730.867 -72.7966L730.867 110.112L666.65 169.112L663.746 166.444L726.768 108.543L726.768 -74.3135L825.428 -164.957L828.331 -162.29Z" fill="#56CCFE"/>
<path d="M790.894 -147.37L718.003 -80.4879L718.003 105.255L643.345 173.654L640.436 170.987L713.897 103.686L713.897 -82.0566L787.985 -150.037L790.894 -147.37Z" fill="#56CCFE"/>
<path d="M1134.19 34.8625C1134.18 37.9482 1132.84 40.9036 1130.46 43.0855C1128.08 45.2674 1124.87 46.4993 1121.51 46.5129C1118.14 46.513 1114.9 45.2872 1112.51 43.1038C1110.13 40.9204 1108.78 37.9572 1108.76 34.8625C1108.76 31.7589 1110.1 28.7823 1112.49 26.5877C1114.88 24.3931 1118.13 23.1602 1121.51 23.1602C1124.88 23.1739 1128.1 24.4129 1130.48 26.606C1132.86 28.7992 1134.19 31.7679 1134.19 34.8625Z" fill="#56CCFE"/>
</g>
<path opacity="0.65" d="M1118.65 -322.585L1118.65 23.8088L1123.59 23.8088L1123.59 -322.585L1118.65 -322.585Z" fill="#56CCFE"/>
</g>
</g>
</svg>
